<?xml version="1.0" standalone="no"?>
<!DOCTYPE svg PUBLIC "-//W3C//DTD SVG 20010904//EN"
 "http://www.w3.org/TR/2001/REC-SVG-20010904/DTD/svg10.dtd">
<svg version="1.0" xmlns="http://www.w3.org/2000/svg"
 width="700.000000pt" height="700.000000pt" viewBox="0 0 700.000000 700.000000"
 preserveAspectRatio="xMidYMid meet">
<metadata>
Created by potrace 1.14, written by Peter Selinger 2001-2017
</metadata>
<g transform="translate(0.000000,700.000000) scale(0.100000,-0.100000)"
fill="#000000" stroke="none">
<path d="M3450 5618 c-41 -72 -87 -152 -102 -177 -15 -25 -31 -53 -35 -61 -8
-14 -118 -207 -157 -273 -25 -43 -290 -503 -431 -747 -62 -107 -137 -238 -167
-290 -219 -378 -524 -906 -582 -1008 -39 -68 -75 -131 -81 -140 -5 -9 -25 -44
-44 -77 -37 -64 -149 -258 -211 -365 -21 -36 -88 -153 -150 -260 -62 -107
-129 -224 -150 -260 -40 -68 -280 -482 -310 -536 -10 -17 -57 -99 -104 -181
-47 -83 -86 -152 -86 -155 0 -2 19 -3 43 -2 23 1 332 5 687 9 623 7 1006 12
1061 14 20 1 31 10 43 33 9 18 21 40 26 48 10 16 159 282 207 370 16 30 92
165 167 300 76 135 171 304 211 375 40 72 137 245 215 385 79 140 157 280 173
310 16 30 33 60 37 65 4 6 22 37 40 70 18 33 42 76 53 95 11 19 31 55 45 80
94 171 225 400 227 400 3 0 29 -43 65 -105 9 -16 214 -367 455 -780 573 -981
605 -1036 605 -1039 0 -2 -240 -4 -532 -6 -293 -1 -680 -3 -860 -4 -196 -1
-332 -6 -337 -11 -6 -6 -60 -134 -121 -285 -62 -151 -114 -281 -117 -289 -6
-13 246 -13 1772 4 237 3 603 7 814 9 210 3 385 7 388 10 3 2 -33 69 -79 148
-47 79 -135 231 -198 338 -62 107 -121 207 -131 222 -11 15 -19 29 -19 31 0 3
-52 94 -117 203 -134 230 -348 595 -373 639 -10 17 -142 244 -295 505 -505
864 -662 1135 -685 1175 -12 22 -26 45 -30 50 -4 6 -18 28 -30 50 -87 156
-174 295 -180 288 -6 -6 -661 -1168 -755 -1338 -22 -41 -45 -82 -122 -218 -24
-42 -55 -99 -70 -125 -14 -26 -44 -78 -66 -117 -23 -38 -49 -86 -59 -105 -10
-19 -29 -53 -42 -75 -12 -22 -35 -61 -49 -87 -15 -27 -39 -69 -54 -95 -14 -27
-37 -66 -49 -88 -13 -22 -32 -56 -42 -75 -10 -19 -36 -66 -59 -105 -22 -38
-52 -91 -66 -117 -15 -26 -46 -83 -70 -125 -24 -43 -58 -103 -75 -133 -17 -30
-62 -111 -100 -180 l-70 -125 -236 -1 c-216 -1 -235 0 -226 15 4 9 133 232
285 496 153 264 287 498 299 520 25 45 194 338 267 463 27 45 49 87 49 92 0 6
5 10 10 10 6 0 10 4 10 10 0 5 13 31 29 58 15 26 39 68 53 93 29 50 212 368
326 564 41 72 83 144 92 160 10 17 70 122 136 235 65 113 127 222 138 242 12
20 70 121 130 225 60 103 120 208 134 233 13 25 28 49 33 54 16 18 9 36 -65
164 -214 370 -251 432 -256 432 -3 0 -39 -60 -80 -132z"/>
</g>
</svg>
