<?xml version="1.0" encoding="utf-8"?>
<!-- Generator: Adobe Illustrator 22.1.0, SVG Export Plug-In . SVG Version: 6.00 Build 0)  -->
<svg version="1.2" baseProfile="tiny" id="Layer_1" xmlns="http://www.w3.org/2000/svg" xmlns:xlink="http://www.w3.org/1999/xlink"
	 x="0px" y="0px" viewBox="0 0 256 67" xml:space="preserve">
<path fill="#FFFFFF" d="M30.9,56.4l28.6-0.3L39,21L22.2,50.9l-4.5,0L37,17.4l-3.2-5.5L8,56.6l17.4-0.2l13.6-24.3l10.8,18.5
	l-16.6,0.1L30.9,56.4z"/>
<path fill="#FFFFFF" d="M75.7,62L44.4,8.2L44.7,8L76,61.8L75.7,62z"/>
<path fill="#FFFFFF" d="M78.5,28.8L78.5,28.8c0-5.3,4.1-9.5,9.6-9.5c5.5,0,9.5,4.2,9.5,9.4v0.1c0,5.2-4.1,9.5-9.6,9.5
	C82.5,38.2,78.5,34,78.5,28.8z M92.5,28.8L92.5,28.8c0-2.7-1.8-5-4.5-5c-2.7,0-4.5,2.2-4.5,4.9v0.1c0,2.6,1.8,4.9,4.5,4.9
	C90.7,33.7,92.5,31.4,92.5,28.8z M102.6,19.7h4.6l7.3,9.6v-9.6h4.9v18.2H115l-7.6-10v10h-4.9V19.7z M129.3,24.1H124v-4.4h15.5v4.4
	h-5.3v13.8h-4.9V24.1z M144.3,19.7h4.9v18.2h-4.9V19.7z M154.4,28.8L154.4,28.8c0-5.4,4-9.5,9.3-9.5c3.6,0,5.9,1.6,7.5,3.8l-3.7,2.9
	c-1-1.3-2.2-2.1-3.9-2.1c-2.5,0-4.2,2.2-4.2,4.8v0.1c0,2.7,1.7,4.9,4.2,4.9c1.8,0,2.9-0.9,4-2.2l3.7,2.7c-1.7,2.4-3.9,4.1-7.8,4.1
	C158.5,38.2,154.4,34.2,154.4,28.8z M176,19.7h14.2V24h-9.4v2.8h8.5v4h-8.5v2.9h9.5v4.3H176V19.7z M195.4,19.7h4.9v13.8h8.6v4.4
	h-13.5V19.7z M213.5,19.7h4.9v13.8h8.6v4.4h-13.5V19.7z M229.9,28.8L229.9,28.8c0-5.3,4.1-9.5,9.6-9.5c5.5,0,9.5,4.2,9.5,9.4v0.1
	c0,5.2-4.1,9.5-9.6,9.5C234,38.2,229.9,34,229.9,28.8z M244,28.8L244,28.8c0-2.7-1.8-5-4.5-5c-2.7,0-4.5,2.2-4.5,4.9v0.1
	c0,2.6,1.8,4.9,4.5,4.9C242.2,33.7,244,31.4,244,28.8z M59.4,33.5v-6l4.5,7.1H64l4.5-7.1v10.4h4.9V19.7h-5.2l-4.2,7l-4.2-7h-5.2v5.6
	L59.4,33.5z"/>
<path fill="#FFFFFF" d="M79.5,47.7h0.7v6.1h-0.7V47.7z"/>
<path fill="#FFFFFF" d="M85.4,47.7H86l3.8,4.9v-4.9h0.7v6.1h-0.5l-3.9-5v5h-0.7V47.7z"/>
<path fill="#FFFFFF" d="M97.2,48.3h-2v-0.6h4.7v0.6h-2v5.4h-0.7V48.3z"/>
<path fill="#FFFFFF" d="M104.6,47.7h4.3v0.6h-3.7v2.1h3.3V51h-3.3v2.1h3.7v0.6h-4.4V47.7z"/>
<path fill="#FFFFFF" d="M113.8,47.7h2.6c0.7,0,1.3,0.2,1.7,0.6c0.3,0.3,0.5,0.7,0.5,1.2v0c0,1-0.7,1.6-1.6,1.8l1.8,2.5h-0.8
	l-1.7-2.4h-1.7v2.4h-0.7V47.7z M116.3,50.8c0.9,0,1.5-0.5,1.5-1.2v0c0-0.7-0.6-1.2-1.5-1.2h-1.9v2.5H116.3z"/>
<path fill="#FFFFFF" d="M123.4,47.7h0.6l3.8,4.9v-4.9h0.7v6.1H128l-3.9-5v5h-0.7V47.7z"/>
<path fill="#FFFFFF" d="M135.9,47.7h0.6l2.7,6.1h-0.7l-0.7-1.6h-3.3l-0.7,1.6h-0.7L135.9,47.7z M137.6,51.6l-1.4-3.1l-1.4,3.1H137.6
	z"/>
<path fill="#FFFFFF" d="M144.7,48.3h-2v-0.6h4.7v0.6h-2v5.4h-0.7V48.3z"/>
<path fill="#FFFFFF" d="M152.2,47.7h0.7v6.1h-0.7V47.7z"/>
<path fill="#FFFFFF" d="M157.8,50.8L157.8,50.8c0-1.7,1.2-3.2,3.1-3.2s3.1,1.4,3.1,3.1v0c0,1.7-1.2,3.1-3.1,3.1
	S157.8,52.4,157.8,50.8z M163.2,50.8L163.2,50.8c0-1.4-1-2.5-2.4-2.5c-1.4,0-2.4,1.1-2.4,2.5v0c0,1.4,1,2.5,2.4,2.5
	C162.2,53.2,163.2,52.1,163.2,50.8z"/>
<path fill="#FFFFFF" d="M168.8,47.7h0.6l3.8,4.9v-4.9h0.7v6.1h-0.5l-3.9-5v5h-0.7V47.7z"/>
<path fill="#FFFFFF" d="M181.2,47.7h0.6l2.7,6.1h-0.7l-0.7-1.6h-3.3l-0.7,1.6h-0.7L181.2,47.7z M182.9,51.6l-1.4-3.1l-1.4,3.1H182.9
	z"/>
<path fill="#FFFFFF" d="M189.2,47.7h0.7v5.4h3.4v0.6h-4.1V47.7z"/>
<path fill="#FFFFFF" d="M203.7,50.8L203.7,50.8c0-1.7,1.2-3.2,3-3.2c1,0,1.6,0.3,2.2,0.8l-0.4,0.5c-0.5-0.4-1-0.7-1.8-0.7
	c-1.3,0-2.3,1.1-2.3,2.5v0c0,1.4,0.9,2.5,2.4,2.5c0.7,0,1.3-0.3,1.7-0.6v-1.5h-1.8v-0.6h2.5v2.4c-0.6,0.5-1.4,0.9-2.4,0.9
	C204.9,53.9,203.7,52.5,203.7,50.8z"/>
<path fill="#FFFFFF" d="M214.2,47.7h2.6c0.7,0,1.3,0.2,1.7,0.6c0.3,0.3,0.5,0.7,0.5,1.2v0c0,1-0.7,1.6-1.6,1.8l1.8,2.5h-0.8
	l-1.7-2.4h-1.7v2.4h-0.7V47.7z M216.7,50.8c0.9,0,1.5-0.5,1.5-1.2v0c0-0.7-0.6-1.2-1.5-1.2h-1.9v2.5H216.7z"/>
<path fill="#FFFFFF" d="M223.5,50.8L223.5,50.8c0-1.7,1.2-3.2,3.1-3.2c1.8,0,3.1,1.4,3.1,3.1v0c0,1.7-1.2,3.1-3.1,3.1
	C224.8,53.9,223.5,52.4,223.5,50.8z M229,50.8L229,50.8c0-1.4-1-2.5-2.4-2.5c-1.4,0-2.4,1.1-2.4,2.5v0c0,1.4,1,2.5,2.4,2.5
	C228,53.2,229,52.1,229,50.8z"/>
<path fill="#FFFFFF" d="M234.5,51.2v-3.5h0.7v3.5c0,1.3,0.7,2,1.8,2c1.1,0,1.8-0.7,1.8-2v-3.5h0.7v3.5c0,1.8-1,2.7-2.5,2.7
	C235.5,53.9,234.5,52.9,234.5,51.2z"/>
<path fill="#FFFFFF" d="M244.5,47.7h2.2c1.4,0,2.2,0.7,2.2,1.9v0c0,1.3-1.1,2-2.4,2h-1.5v2.1h-0.7V47.7z M246.7,51
	c1,0,1.6-0.5,1.6-1.3v0c0-0.9-0.6-1.3-1.6-1.3h-1.5V51H246.7z"/>
</svg>
